<mxfile host="app.diagrams.net" modified="2021-03-21T23:03:15.364Z" agent="5.0 (Windows NT 10.0; Win64; x64) AppleWebKit/537.36 (KHTML, like Gecko) Chrome/89.0.4389.90 Safari/537.36 Edg/89.0.774.54" etag="MIAb6EMuhWckYpZu3GDG" version="13.10.2" type="github">
  <diagram id="xEFGg8oCa0w5b0Kg8_Zw" name="Page-1">
    <mxGraphModel dx="2883" dy="1368" grid="1" gridSize="10" guides="1" tooltips="1" connect="1" arrows="1" fold="1" page="1" pageScale="1" pageWidth="850" pageHeight="1100" math="0" shadow="0">
      <root>
        <mxCell id="0" />
        <mxCell id="1" parent="0" />
        <mxCell id="6fgWB0c_IHHh_vzGt7eG-7" style="edgeStyle=orthogonalEdgeStyle;rounded=0;orthogonalLoop=1;jettySize=auto;html=1;exitX=0.5;exitY=1;exitDx=0;exitDy=0;entryX=0.5;entryY=0;entryDx=0;entryDy=0;" parent="1" source="6fgWB0c_IHHh_vzGt7eG-2" target="6fgWB0c_IHHh_vzGt7eG-6" edge="1">
          <mxGeometry relative="1" as="geometry" />
        </mxCell>
        <mxCell id="6fgWB0c_IHHh_vzGt7eG-2" value="Upload Media" style="rounded=1;whiteSpace=wrap;html=1;fillColor=#F5F5F5;" parent="1" vertex="1">
          <mxGeometry x="337.5" y="150" width="125" height="40" as="geometry" />
        </mxCell>
        <mxCell id="6fgWB0c_IHHh_vzGt7eG-11" style="edgeStyle=orthogonalEdgeStyle;rounded=0;orthogonalLoop=1;jettySize=auto;html=1;exitX=1;exitY=0.5;exitDx=0;exitDy=0;entryX=0;entryY=0.5;entryDx=0;entryDy=0;" parent="1" source="6fgWB0c_IHHh_vzGt7eG-6" target="6fgWB0c_IHHh_vzGt7eG-9" edge="1">
          <mxGeometry relative="1" as="geometry" />
        </mxCell>
        <mxCell id="6fgWB0c_IHHh_vzGt7eG-12" style="edgeStyle=orthogonalEdgeStyle;rounded=0;orthogonalLoop=1;jettySize=auto;html=1;exitX=0;exitY=0.5;exitDx=0;exitDy=0;entryX=1;entryY=0.5;entryDx=0;entryDy=0;" parent="1" source="6fgWB0c_IHHh_vzGt7eG-6" target="6fgWB0c_IHHh_vzGt7eG-10" edge="1">
          <mxGeometry relative="1" as="geometry" />
        </mxCell>
        <mxCell id="6fgWB0c_IHHh_vzGt7eG-6" value="Media Type" style="rhombus;whiteSpace=wrap;html=1;fillColor=#F5F5F5;" parent="1" vertex="1">
          <mxGeometry x="360" y="230" width="80" height="80" as="geometry" />
        </mxCell>
        <mxCell id="6fgWB0c_IHHh_vzGt7eG-19" style="edgeStyle=orthogonalEdgeStyle;rounded=0;orthogonalLoop=1;jettySize=auto;html=1;exitX=0.5;exitY=1;exitDx=0;exitDy=0;entryX=0.5;entryY=0;entryDx=0;entryDy=0;" parent="1" source="6fgWB0c_IHHh_vzGt7eG-9" target="6fgWB0c_IHHh_vzGt7eG-16" edge="1">
          <mxGeometry relative="1" as="geometry" />
        </mxCell>
        <mxCell id="6fgWB0c_IHHh_vzGt7eG-9" value="Denoise Video" style="rounded=1;whiteSpace=wrap;html=1;fillColor=#F5F5F5;" parent="1" vertex="1">
          <mxGeometry x="500" y="250" width="120" height="40" as="geometry" />
        </mxCell>
        <mxCell id="6fgWB0c_IHHh_vzGt7eG-22" style="edgeStyle=orthogonalEdgeStyle;rounded=0;orthogonalLoop=1;jettySize=auto;html=1;exitX=0.5;exitY=1;exitDx=0;exitDy=0;entryX=0.5;entryY=0;entryDx=0;entryDy=0;" parent="1" source="6fgWB0c_IHHh_vzGt7eG-10" target="6fgWB0c_IHHh_vzGt7eG-21" edge="1">
          <mxGeometry relative="1" as="geometry" />
        </mxCell>
        <mxCell id="6fgWB0c_IHHh_vzGt7eG-10" value="Denoise Image" style="rounded=1;whiteSpace=wrap;html=1;fillColor=#F5F5F5;" parent="1" vertex="1">
          <mxGeometry x="180" y="250" width="120" height="40" as="geometry" />
        </mxCell>
        <mxCell id="6fgWB0c_IHHh_vzGt7eG-13" value="Video" style="text;html=1;strokeColor=none;fillColor=none;align=center;verticalAlign=middle;whiteSpace=wrap;rounded=0;" parent="1" vertex="1">
          <mxGeometry x="440" y="250" width="40" height="20" as="geometry" />
        </mxCell>
        <mxCell id="6fgWB0c_IHHh_vzGt7eG-14" value="Image" style="text;html=1;strokeColor=none;fillColor=none;align=center;verticalAlign=middle;whiteSpace=wrap;rounded=0;" parent="1" vertex="1">
          <mxGeometry x="320" y="250" width="40" height="20" as="geometry" />
        </mxCell>
        <mxCell id="6fgWB0c_IHHh_vzGt7eG-34" value="" style="edgeStyle=orthogonalEdgeStyle;rounded=0;orthogonalLoop=1;jettySize=auto;html=1;" parent="1" source="6fgWB0c_IHHh_vzGt7eG-16" target="6fgWB0c_IHHh_vzGt7eG-32" edge="1">
          <mxGeometry relative="1" as="geometry" />
        </mxCell>
        <mxCell id="y_gsmOEreV1zbVR61ArW-4" value="No" style="edgeLabel;html=1;align=center;verticalAlign=middle;resizable=0;points=[];" vertex="1" connectable="0" parent="6fgWB0c_IHHh_vzGt7eG-34">
          <mxGeometry x="-0.1166" relative="1" as="geometry">
            <mxPoint as="offset" />
          </mxGeometry>
        </mxCell>
        <mxCell id="6fgWB0c_IHHh_vzGt7eG-37" value="" style="edgeStyle=orthogonalEdgeStyle;rounded=0;orthogonalLoop=1;jettySize=auto;html=1;" parent="1" source="6fgWB0c_IHHh_vzGt7eG-16" target="6fgWB0c_IHHh_vzGt7eG-23" edge="1">
          <mxGeometry relative="1" as="geometry" />
        </mxCell>
        <mxCell id="y_gsmOEreV1zbVR61ArW-3" value="Yes" style="edgeLabel;html=1;align=center;verticalAlign=middle;resizable=0;points=[];" vertex="1" connectable="0" parent="6fgWB0c_IHHh_vzGt7eG-37">
          <mxGeometry x="-0.1749" relative="1" as="geometry">
            <mxPoint as="offset" />
          </mxGeometry>
        </mxCell>
        <mxCell id="6fgWB0c_IHHh_vzGt7eG-16" value="&lt;font style=&quot;font-size: 10px&quot;&gt;Denoise Only&lt;/font&gt;" style="rhombus;whiteSpace=wrap;html=1;fillColor=#F5F5F5;" parent="1" vertex="1">
          <mxGeometry x="520" y="320" width="80" height="80" as="geometry" />
        </mxCell>
        <mxCell id="6fgWB0c_IHHh_vzGt7eG-38" value="" style="edgeStyle=orthogonalEdgeStyle;rounded=0;orthogonalLoop=1;jettySize=auto;html=1;" parent="1" source="6fgWB0c_IHHh_vzGt7eG-21" target="6fgWB0c_IHHh_vzGt7eG-24" edge="1">
          <mxGeometry relative="1" as="geometry" />
        </mxCell>
        <mxCell id="y_gsmOEreV1zbVR61ArW-8" value="Yes" style="edgeLabel;html=1;align=center;verticalAlign=middle;resizable=0;points=[];" vertex="1" connectable="0" parent="6fgWB0c_IHHh_vzGt7eG-38">
          <mxGeometry x="-0.1163" y="-2" relative="1" as="geometry">
            <mxPoint as="offset" />
          </mxGeometry>
        </mxCell>
        <mxCell id="6fgWB0c_IHHh_vzGt7eG-40" value="" style="edgeStyle=orthogonalEdgeStyle;rounded=0;orthogonalLoop=1;jettySize=auto;html=1;" parent="1" source="6fgWB0c_IHHh_vzGt7eG-21" target="6fgWB0c_IHHh_vzGt7eG-33" edge="1">
          <mxGeometry relative="1" as="geometry" />
        </mxCell>
        <mxCell id="y_gsmOEreV1zbVR61ArW-7" value="No" style="edgeLabel;html=1;align=center;verticalAlign=middle;resizable=0;points=[];" vertex="1" connectable="0" parent="6fgWB0c_IHHh_vzGt7eG-40">
          <mxGeometry x="-0.3603" y="-1" relative="1" as="geometry">
            <mxPoint as="offset" />
          </mxGeometry>
        </mxCell>
        <mxCell id="6fgWB0c_IHHh_vzGt7eG-21" value="&lt;span&gt;&lt;font style=&quot;font-size: 10px&quot;&gt;Denoise Only&lt;/font&gt;&lt;/span&gt;" style="rhombus;whiteSpace=wrap;html=1;fillColor=#F5F5F5;" parent="1" vertex="1">
          <mxGeometry x="200" y="320" width="80" height="80" as="geometry" />
        </mxCell>
        <mxCell id="6fgWB0c_IHHh_vzGt7eG-23" value="A" style="ellipse;whiteSpace=wrap;html=1;aspect=fixed;fillColor=#F5F5F5;" parent="1" vertex="1">
          <mxGeometry x="700" y="340" width="40" height="40" as="geometry" />
        </mxCell>
        <mxCell id="6fgWB0c_IHHh_vzGt7eG-24" value="A" style="ellipse;whiteSpace=wrap;html=1;aspect=fixed;fillColor=#F5F5F5;" parent="1" vertex="1">
          <mxGeometry x="60" y="340" width="40" height="40" as="geometry" />
        </mxCell>
        <mxCell id="6fgWB0c_IHHh_vzGt7eG-36" value="" style="edgeStyle=orthogonalEdgeStyle;rounded=0;orthogonalLoop=1;jettySize=auto;html=1;" parent="1" source="6fgWB0c_IHHh_vzGt7eG-25" target="6fgWB0c_IHHh_vzGt7eG-26" edge="1">
          <mxGeometry relative="1" as="geometry" />
        </mxCell>
        <mxCell id="y_gsmOEreV1zbVR61ArW-5" value="Yes" style="edgeLabel;html=1;align=center;verticalAlign=middle;resizable=0;points=[];" vertex="1" connectable="0" parent="6fgWB0c_IHHh_vzGt7eG-36">
          <mxGeometry x="-0.2169" y="2" relative="1" as="geometry">
            <mxPoint as="offset" />
          </mxGeometry>
        </mxCell>
        <mxCell id="6fgWB0c_IHHh_vzGt7eG-45" value="" style="edgeStyle=orthogonalEdgeStyle;rounded=0;orthogonalLoop=1;jettySize=auto;html=1;" parent="1" source="6fgWB0c_IHHh_vzGt7eG-25" target="6fgWB0c_IHHh_vzGt7eG-43" edge="1">
          <mxGeometry relative="1" as="geometry" />
        </mxCell>
        <mxCell id="y_gsmOEreV1zbVR61ArW-6" value="No" style="edgeLabel;html=1;align=center;verticalAlign=middle;resizable=0;points=[];" vertex="1" connectable="0" parent="6fgWB0c_IHHh_vzGt7eG-45">
          <mxGeometry x="0.207" relative="1" as="geometry">
            <mxPoint y="-10" as="offset" />
          </mxGeometry>
        </mxCell>
        <mxCell id="6fgWB0c_IHHh_vzGt7eG-25" value="&lt;font style=&quot;font-size: 10px&quot;&gt;Enhance Only&lt;/font&gt;" style="rhombus;whiteSpace=wrap;html=1;fillColor=#F5F5F5;" parent="1" vertex="1">
          <mxGeometry x="520" y="580" width="80" height="80" as="geometry" />
        </mxCell>
        <mxCell id="6fgWB0c_IHHh_vzGt7eG-26" value="A" style="ellipse;whiteSpace=wrap;html=1;aspect=fixed;fillColor=#F5F5F5;" parent="1" vertex="1">
          <mxGeometry x="700" y="600" width="40" height="40" as="geometry" />
        </mxCell>
        <mxCell id="6fgWB0c_IHHh_vzGt7eG-42" value="" style="edgeStyle=orthogonalEdgeStyle;rounded=0;orthogonalLoop=1;jettySize=auto;html=1;" parent="1" source="6fgWB0c_IHHh_vzGt7eG-29" target="6fgWB0c_IHHh_vzGt7eG-30" edge="1">
          <mxGeometry relative="1" as="geometry" />
        </mxCell>
        <mxCell id="y_gsmOEreV1zbVR61ArW-9" value="Yes" style="edgeLabel;html=1;align=center;verticalAlign=middle;resizable=0;points=[];" vertex="1" connectable="0" parent="6fgWB0c_IHHh_vzGt7eG-42">
          <mxGeometry x="-0.1438" y="1" relative="1" as="geometry">
            <mxPoint as="offset" />
          </mxGeometry>
        </mxCell>
        <mxCell id="6fgWB0c_IHHh_vzGt7eG-46" value="" style="edgeStyle=orthogonalEdgeStyle;rounded=0;orthogonalLoop=1;jettySize=auto;html=1;" parent="1" source="6fgWB0c_IHHh_vzGt7eG-29" target="6fgWB0c_IHHh_vzGt7eG-44" edge="1">
          <mxGeometry relative="1" as="geometry" />
        </mxCell>
        <mxCell id="y_gsmOEreV1zbVR61ArW-10" value="No" style="edgeLabel;html=1;align=center;verticalAlign=middle;resizable=0;points=[];" vertex="1" connectable="0" parent="6fgWB0c_IHHh_vzGt7eG-46">
          <mxGeometry x="-0.3358" relative="1" as="geometry">
            <mxPoint y="3.33" as="offset" />
          </mxGeometry>
        </mxCell>
        <mxCell id="6fgWB0c_IHHh_vzGt7eG-29" value="&lt;span&gt;&lt;font style=&quot;font-size: 10px&quot;&gt;Enhance Only&lt;/font&gt;&lt;/span&gt;" style="rhombus;whiteSpace=wrap;html=1;fillColor=#F5F5F5;" parent="1" vertex="1">
          <mxGeometry x="200" y="580" width="80" height="80" as="geometry" />
        </mxCell>
        <mxCell id="6fgWB0c_IHHh_vzGt7eG-30" value="A" style="ellipse;whiteSpace=wrap;html=1;aspect=fixed;fillColor=#F5F5F5;" parent="1" vertex="1">
          <mxGeometry x="60" y="600" width="40" height="40" as="geometry" />
        </mxCell>
        <mxCell id="6fgWB0c_IHHh_vzGt7eG-35" value="" style="edgeStyle=orthogonalEdgeStyle;rounded=0;orthogonalLoop=1;jettySize=auto;html=1;" parent="1" source="6fgWB0c_IHHh_vzGt7eG-32" target="6fgWB0c_IHHh_vzGt7eG-25" edge="1">
          <mxGeometry relative="1" as="geometry" />
        </mxCell>
        <mxCell id="6fgWB0c_IHHh_vzGt7eG-32" value="Enhance Video" style="rounded=1;whiteSpace=wrap;html=1;fillColor=#F5F5F5;" parent="1" vertex="1">
          <mxGeometry x="500" y="470" width="120" height="40" as="geometry" />
        </mxCell>
        <mxCell id="6fgWB0c_IHHh_vzGt7eG-41" value="" style="edgeStyle=orthogonalEdgeStyle;rounded=0;orthogonalLoop=1;jettySize=auto;html=1;" parent="1" source="6fgWB0c_IHHh_vzGt7eG-33" target="6fgWB0c_IHHh_vzGt7eG-29" edge="1">
          <mxGeometry relative="1" as="geometry" />
        </mxCell>
        <mxCell id="6fgWB0c_IHHh_vzGt7eG-33" value="Enhance Image" style="rounded=1;whiteSpace=wrap;html=1;fillColor=#F5F5F5;" parent="1" vertex="1">
          <mxGeometry x="180" y="470" width="120" height="40" as="geometry" />
        </mxCell>
        <mxCell id="6fgWB0c_IHHh_vzGt7eG-52" style="edgeStyle=orthogonalEdgeStyle;rounded=0;orthogonalLoop=1;jettySize=auto;html=1;exitX=0;exitY=0.5;exitDx=0;exitDy=0;entryX=-0.298;entryY=0.205;entryDx=0;entryDy=0;entryPerimeter=0;fillColor=#000000;" parent="1" source="6fgWB0c_IHHh_vzGt7eG-43" target="6fgWB0c_IHHh_vzGt7eG-50" edge="1">
          <mxGeometry relative="1" as="geometry" />
        </mxCell>
        <mxCell id="6fgWB0c_IHHh_vzGt7eG-43" value="Video to Data" style="rounded=1;whiteSpace=wrap;html=1;fillColor=#F5F5F5;" parent="1" vertex="1">
          <mxGeometry x="500" y="710" width="120" height="40" as="geometry" />
        </mxCell>
        <mxCell id="6fgWB0c_IHHh_vzGt7eG-53" style="edgeStyle=orthogonalEdgeStyle;rounded=0;orthogonalLoop=1;jettySize=auto;html=1;exitX=1;exitY=0.5;exitDx=0;exitDy=0;entryX=-0.298;entryY=0.76;entryDx=0;entryDy=0;entryPerimeter=0;fillColor=#000000;" parent="1" source="6fgWB0c_IHHh_vzGt7eG-44" target="6fgWB0c_IHHh_vzGt7eG-50" edge="1">
          <mxGeometry relative="1" as="geometry" />
        </mxCell>
        <mxCell id="6fgWB0c_IHHh_vzGt7eG-44" value="Image to Data" style="rounded=1;whiteSpace=wrap;html=1;fillColor=#F5F5F5;" parent="1" vertex="1">
          <mxGeometry x="180" y="710" width="120" height="40" as="geometry" />
        </mxCell>
        <mxCell id="6fgWB0c_IHHh_vzGt7eG-65" value="" style="edgeStyle=orthogonalEdgeStyle;rounded=0;orthogonalLoop=1;jettySize=auto;html=1;fillColor=#000000;entryX=0.5;entryY=0;entryDx=0;entryDy=0;exitX=0.873;exitY=0.513;exitDx=0;exitDy=0;exitPerimeter=0;" parent="1" source="6fgWB0c_IHHh_vzGt7eG-50" target="6fgWB0c_IHHh_vzGt7eG-59" edge="1">
          <mxGeometry relative="1" as="geometry">
            <Array as="points">
              <mxPoint x="398" y="830" />
              <mxPoint x="398" y="830" />
            </Array>
          </mxGeometry>
        </mxCell>
        <mxCell id="6fgWB0c_IHHh_vzGt7eG-50" value="" style="html=1;points=[];perimeter=orthogonalPerimeter;fillColor=#000000;strokeColor=none;rotation=90;" parent="1" vertex="1">
          <mxGeometry x="397.19" y="748.44" width="5" height="143.12" as="geometry" />
        </mxCell>
        <mxCell id="6fgWB0c_IHHh_vzGt7eG-55" value="" style="edgeStyle=orthogonalEdgeStyle;rounded=0;orthogonalLoop=1;jettySize=auto;html=1;fillColor=#000000;" parent="1" source="6fgWB0c_IHHh_vzGt7eG-54" target="6fgWB0c_IHHh_vzGt7eG-50" edge="1">
          <mxGeometry relative="1" as="geometry" />
        </mxCell>
        <mxCell id="6fgWB0c_IHHh_vzGt7eG-54" value="A" style="ellipse;whiteSpace=wrap;html=1;aspect=fixed;fillColor=#F5F5F5;" parent="1" vertex="1">
          <mxGeometry x="379.69" y="690" width="40" height="40" as="geometry" />
        </mxCell>
        <mxCell id="6fgWB0c_IHHh_vzGt7eG-64" value="" style="edgeStyle=orthogonalEdgeStyle;rounded=0;orthogonalLoop=1;jettySize=auto;html=1;fillColor=#000000;" parent="1" source="6fgWB0c_IHHh_vzGt7eG-56" target="6fgWB0c_IHHh_vzGt7eG-2" edge="1">
          <mxGeometry relative="1" as="geometry" />
        </mxCell>
        <mxCell id="6fgWB0c_IHHh_vzGt7eG-56" value="" style="ellipse;fillColor=#000000;strokeColor=none;" parent="1" vertex="1">
          <mxGeometry x="385" y="80" width="30" height="30" as="geometry" />
        </mxCell>
        <mxCell id="6fgWB0c_IHHh_vzGt7eG-58" value="" style="ellipse;html=1;shape=endState;fillColor=#000000;strokeColor=#000000;" parent="1" vertex="1">
          <mxGeometry x="382.5" y="1140" width="30" height="30" as="geometry" />
        </mxCell>
        <mxCell id="y_gsmOEreV1zbVR61ArW-15" style="edgeStyle=orthogonalEdgeStyle;rounded=0;orthogonalLoop=1;jettySize=auto;html=1;exitX=0.5;exitY=1;exitDx=0;exitDy=0;entryX=0.5;entryY=0;entryDx=0;entryDy=0;fillColor=#000000;" edge="1" parent="1" source="6fgWB0c_IHHh_vzGt7eG-59" target="y_gsmOEreV1zbVR61ArW-12">
          <mxGeometry relative="1" as="geometry" />
        </mxCell>
        <mxCell id="6fgWB0c_IHHh_vzGt7eG-59" value="Download Media" style="rounded=1;whiteSpace=wrap;html=1;fillColor=#F5F5F5;" parent="1" vertex="1">
          <mxGeometry x="337.5" y="891.56" width="120" height="40" as="geometry" />
        </mxCell>
        <mxCell id="y_gsmOEreV1zbVR61ArW-13" style="edgeStyle=orthogonalEdgeStyle;rounded=0;orthogonalLoop=1;jettySize=auto;html=1;exitX=0.5;exitY=1;exitDx=0;exitDy=0;entryX=0.5;entryY=0;entryDx=0;entryDy=0;fillColor=#000000;" edge="1" parent="1" source="y_gsmOEreV1zbVR61ArW-12" target="6fgWB0c_IHHh_vzGt7eG-58">
          <mxGeometry relative="1" as="geometry" />
        </mxCell>
        <mxCell id="y_gsmOEreV1zbVR61ArW-18" value="No" style="edgeLabel;html=1;align=center;verticalAlign=middle;resizable=0;points=[];" vertex="1" connectable="0" parent="y_gsmOEreV1zbVR61ArW-13">
          <mxGeometry x="-0.2571" y="1" relative="1" as="geometry">
            <mxPoint as="offset" />
          </mxGeometry>
        </mxCell>
        <mxCell id="y_gsmOEreV1zbVR61ArW-16" style="edgeStyle=orthogonalEdgeStyle;rounded=0;orthogonalLoop=1;jettySize=auto;html=1;exitX=1;exitY=0.5;exitDx=0;exitDy=0;entryX=1;entryY=0.5;entryDx=0;entryDy=0;fillColor=#000000;" edge="1" parent="1" source="y_gsmOEreV1zbVR61ArW-12" target="6fgWB0c_IHHh_vzGt7eG-2">
          <mxGeometry relative="1" as="geometry">
            <Array as="points">
              <mxPoint x="790" y="1040" />
              <mxPoint x="790" y="170" />
            </Array>
          </mxGeometry>
        </mxCell>
        <mxCell id="y_gsmOEreV1zbVR61ArW-17" value="Yes" style="edgeLabel;html=1;align=center;verticalAlign=middle;resizable=0;points=[];" vertex="1" connectable="0" parent="y_gsmOEreV1zbVR61ArW-16">
          <mxGeometry x="-0.9042" relative="1" as="geometry">
            <mxPoint as="offset" />
          </mxGeometry>
        </mxCell>
        <mxCell id="y_gsmOEreV1zbVR61ArW-12" value="&lt;font style=&quot;font-size: 10px&quot;&gt;Again?&lt;/font&gt;" style="rhombus;whiteSpace=wrap;html=1;fillColor=#F5F5F5;" vertex="1" parent="1">
          <mxGeometry x="357.5" y="1000" width="80" height="80" as="geometry" />
        </mxCell>
      </root>
    </mxGraphModel>
  </diagram>
</mxfile>
